<?xml version="1.0" encoding="utf-8"?>
<!-- Generator: Adobe Illustrator 19.2.1, SVG Export Plug-In . SVG Version: 6.00 Build 0)  -->
<svg version="1.1" id="layer" xmlns="http://www.w3.org/2000/svg" xmlns:xlink="http://www.w3.org/1999/xlink" x="0px" y="0px"
	 viewBox="0 216 652 217" style="enable-background:new 0 216 652 217;" xml:space="preserve">
<polygon id="Fill-1_1_" points="401.6,414.8 406.1,414.8 406.1,227.2 401.6,227.2 "/>
<path d="M460.7,368.1h30.8v-64.5h27.3v-25.3h-84.9v25.3h26.8V368.1 M558.4,372.1h27.8l35.2-93.8h-31.8l-16.9,52.6l-16.9-52.6h-32.8
	L558.4,372.1 M21.5,372.1h6.5v-83.4l64,83.4h5v-93.8h-6.5v81.9l-62.5-81.9h-6.5V372.1z M124.2,372.1h65.5v-6.5h-58.6v-37.7h52.1
	v-6.5h-52.1v-36.7h58.1v-6.5h-65V372.1z M204.6,372.1h7.9l32.3-43.2l32.3,43.2h7.9L248.7,324l34.7-45.7h-7.9L244.8,320l-31.3-41.2
	h-7.9l35.2,46.2L204.6,372.1z M330.6,372.1h6.9v-87.3h31.8v-6.5h-70.5v6.5h31.8L330.6,372.1L330.6,372.1z"/>
<polygon id="Fill-6_1_" points="401.6,414.8 406.1,414.8 406.1,227.2 401.6,227.2 "/>
</svg>
